<svg xmlns="http://www.w3.org/2000/svg" xmlns:xlink="http://www.w3.org/1999/xlink" viewBox="0 0 368.08 195.93"><defs><style>.cls-1{fill:#f7f451;}.cls-2{fill:url(#linear-gradient);}.cls-3{fill:url(#linear-gradient-2);}.cls-4{fill:url(#linear-gradient-3);}.cls-5{fill:url(#linear-gradient-4);}.cls-6{fill:url(#linear-gradient-5);}.cls-7{fill:url(#linear-gradient-6);}.cls-8{fill:url(#linear-gradient-7);}.cls-9{fill:url(#linear-gradient-8);}.cls-10{fill:url(#linear-gradient-9);}.cls-11{fill:url(#linear-gradient-10);}.cls-12{fill:url(#linear-gradient-11);}.cls-13{fill:url(#linear-gradient-12);}.cls-14{fill:url(#linear-gradient-13);}</style><linearGradient id="linear-gradient" x1="48.97" y1="108.12" x2="48.97" y2="40.42" gradientTransform="matrix(1.04, 0.01, -0.02, 1, -14.17, 1.68)" gradientUnits="userSpaceOnUse"><stop offset="0" stop-color="#d7753b"/><stop offset="1" stop-color="#f7f451"/></linearGradient><linearGradient id="linear-gradient-2" x1="98.95" y1="100.46" x2="98.95" y2="49.47" xlink:href="#linear-gradient"/><linearGradient id="linear-gradient-3" x1="141.5" y1="95.12" x2="141.5" y2="41.76" xlink:href="#linear-gradient"/><linearGradient id="linear-gradient-4" x1="171.61" y1="89.76" x2="171.61" y2="19.29" xlink:href="#linear-gradient"/><linearGradient id="linear-gradient-5" x1="206.88" y1="103.17" x2="206.88" y2="32.11" xlink:href="#linear-gradient"/><linearGradient id="linear-gradient-6" x1="252.92" y1="76.7" x2="252.92" y2="7.2" xlink:href="#linear-gradient"/><linearGradient id="linear-gradient-7" x1="118.47" y1="175.03" x2="118.47" y2="103.58" xlink:href="#linear-gradient"/><linearGradient id="linear-gradient-8" x1="148.2" y1="169.08" x2="148.2" y2="98.68" xlink:href="#linear-gradient"/><linearGradient id="linear-gradient-9" x1="180.45" y1="183.02" x2="180.45" y2="111.25" xlink:href="#linear-gradient"/><linearGradient id="linear-gradient-10" x1="222.99" y1="159.94" x2="222.99" y2="91.41" xlink:href="#linear-gradient"/><linearGradient id="linear-gradient-11" x1="264.44" y1="151.55" x2="264.44" y2="81.9" xlink:href="#linear-gradient"/><linearGradient id="linear-gradient-12" x1="300.52" y1="147.01" x2="300.52" y2="95.45" xlink:href="#linear-gradient"/><linearGradient id="linear-gradient-13" x1="340.51" y1="142.47" x2="340.51" y2="88.29" xlink:href="#linear-gradient"/></defs><title>Logo-ScriptFighter</title><g id="Layer_2" data-name="Layer 2"><g id="Layer_1-2" data-name="Layer 1"><path d="M153.11,194.93c-1.14,0-2.28,0-3.39-.11l-.71-.08c-5-.79-8.1-5.22-7.55-10.77l.13-.87.9-4.89a12.16,12.16,0,0,1-2.91.77L126,180.74a12.22,12.22,0,0,1-1.35.08A8.75,8.75,0,0,1,118,178a10.06,10.06,0,0,1-2.19-8.43l2-13.17-8.46,1.11-2.38,16.19a13.56,13.56,0,0,1-3.66,7.19,12.32,12.32,0,0,1-7.19,3.68l-13.53,1.75a12.19,12.19,0,0,1-1.34.08,8.68,8.68,0,0,1-6.57-2.8,10,10,0,0,1-2.17-8.42l9.34-62.74.09-.46c-.91.08-1.81.12-2.67.12a23.61,23.61,0,0,1-13.12-3.66,20.81,20.81,0,0,1-6.29-6.38,37.62,37.62,0,0,1-6,6.67,42.73,42.73,0,0,1-23,10.16,44.4,44.4,0,0,1-5.84.41c-6.16,0-11.36-1.51-15.46-4.49-5.85-4.26-8.8-11-8.51-19.41,0-.89.14-2,.34-3.63l0-.32.23-1.38a13.4,13.4,0,0,1,3.61-7.16,13.21,13.21,0,0,1,2.67-2.14A23.6,23.6,0,0,1,5.56,69,34.17,34.17,0,0,1,11,51.59,39.89,39.89,0,0,1,23.83,39a42,42,0,0,1,16.33-5.92,39.47,39.47,0,0,1,5.34-.38,29.38,29.38,0,0,1,9.39,1.46,21.27,21.27,0,0,1,11.26,8.48A23,23,0,0,1,69.79,53,42.15,42.15,0,0,1,73.4,50a38.51,38.51,0,0,1,18-7.59,34,34,0,0,1,4.65-.33,24,24,0,0,1,13.19,3.65,23.46,23.46,0,0,1,2.38,1.74,13.43,13.43,0,0,1,2.59-4.38,12.34,12.34,0,0,1,7.53-4.17L135.36,37a10.76,10.76,0,0,1,1.49-.1,9.33,9.33,0,0,1,1.92.19,22.75,22.75,0,0,1,7-2.18,20.21,20.21,0,0,1,2.74-.2,16.61,16.61,0,0,1,1.74.09v-.12a22.72,22.72,0,0,1,5.79-14.59,21.69,21.69,0,0,1,13.14-7.41l.11,0a18.37,18.37,0,0,1,2.53-.18A13.48,13.48,0,0,1,181,15.78c3.12,2.76,4.7,6.8,4.58,11.66a22.24,22.24,0,0,1-.22,2.59l13.37-1.86a11.22,11.22,0,0,1,1.52-.11,9.65,9.65,0,0,1,2.23.26,26.38,26.38,0,0,1,8.31-2.57,24.3,24.3,0,0,1,3.37-.24,20.07,20.07,0,0,1,12.11,3.9,13.62,13.62,0,0,1,2-2.58,13.2,13.2,0,0,1,4.22-2.93L234,14.06a13.66,13.66,0,0,1,3.7-7.31A12.61,12.61,0,0,1,245,3l13.2-1.86a10.93,10.93,0,0,1,1.5-.11,8.9,8.9,0,0,1,6.58,2.72,10,10,0,0,1,2.26,8.53l-1.12,6.85a8.55,8.55,0,0,1,4.78,2.58,10,10,0,0,1,2.29,8.43L272.82,41.6a13.79,13.79,0,0,1-3.73,7.33,12.79,12.79,0,0,1-6.8,3.69l-.19,1.27a8.61,8.61,0,0,1,3.69,2.33,10.08,10.08,0,0,1,2.29,8.45l-1.59,11.2,2.29-.31a10.2,10.2,0,0,1,1.45-.1,9,9,0,0,1,6.65,2.76,10,10,0,0,1,2.27,8.56L278,93.66a8.6,8.6,0,0,1,4.79,2.62l.15.16a37.49,37.49,0,0,1,17.29-7,31.62,31.62,0,0,1,4.06-.28,24,24,0,0,1,11.36,2.72,23.3,23.3,0,0,1,2.44,1.48A13.53,13.53,0,0,1,320,90.73a12.7,12.7,0,0,1,7.75-4.21l14-1.88a11,11,0,0,1,1.5-.1,10.53,10.53,0,0,1,2,.2,23.36,23.36,0,0,1,7.23-2.19,20.19,20.19,0,0,1,2.75-.19,14.29,14.29,0,0,1,7.2,1.78,9.37,9.37,0,0,1,4.62,8.65,13.55,13.55,0,0,1-.56,3.51L362,112a13.55,13.55,0,0,1-5.89,7.2,11.48,11.48,0,0,1-5.77,1.59l-1.82.65-3.14,21.34a13.84,13.84,0,0,1-3.77,7.41,12.84,12.84,0,0,1-7.41,3.76l-14,1.8a11.24,11.24,0,0,1-1.41.09,9.13,9.13,0,0,1-6.26-2.33,41.51,41.51,0,0,1-4.93,2.62,46.07,46.07,0,0,1-12.9,3.66,43.22,43.22,0,0,1-5.34.35,27.17,27.17,0,0,1-13.49-3.22l-.64-.38a13.32,13.32,0,0,1-7.87,6l-.52.13c-2.68.56-5.21,1-7.55,1.29a47.28,47.28,0,0,1-5.91.41,22,22,0,0,1-9.57-1.84,12.84,12.84,0,0,1-2.08-1.24,13.45,13.45,0,0,1-1.62,2,12.56,12.56,0,0,1-7.31,3.73L219,168.76a10.78,10.78,0,0,1-1.38.09,9.29,9.29,0,0,1-4.83-1.3,12.41,12.41,0,0,1-6.32,2.82L194.15,172a37.14,37.14,0,0,1-9.51,12.11,46.61,46.61,0,0,1-24.19,10.39A57.83,57.83,0,0,1,153.11,194.93Z"/><path class="cls-1" d="M259.66,2a7.91,7.91,0,0,1,5.85,2.41,9,9,0,0,1,2,7.67L266.23,20a7.7,7.7,0,0,1,5.2,2.41,9,9,0,0,1,2,7.59l-1.63,11.5a12.76,12.76,0,0,1-3.45,6.77,11.79,11.79,0,0,1-6.74,3.48l-.23,0L261,54.63a7.57,7.57,0,0,1,4.07,2.27,9,9,0,0,1,2,7.62l-1.74,12.25a2,2,0,0,1-.05.26l3.62-.48a9.72,9.72,0,0,1,1.31-.09,8,8,0,0,1,5.92,2.45,9.06,9.06,0,0,1,2,7.71l-1.29,7.9A7.76,7.76,0,0,1,282.09,97a7.32,7.32,0,0,1,.69.87,36.71,36.71,0,0,1,17.61-7.4,29.74,29.74,0,0,1,3.93-.27,22.43,22.43,0,0,1,14.17,4.72,13,13,0,0,1,2.22-3.49,11.67,11.67,0,0,1,7.14-3.88l14-1.88a10.47,10.47,0,0,1,1.36-.09,8.94,8.94,0,0,1,2.16.26,22.36,22.36,0,0,1,7.24-2.26,20,20,0,0,1,2.62-.18A13.3,13.3,0,0,1,362,85a8.39,8.39,0,0,1,4.12,7.76,12,12,0,0,1-.52,3.25l-4.51,15.69a12.54,12.54,0,0,1-5.43,6.61,10.57,10.57,0,0,1-5.28,1.45h-.16l-2.55.91L344.4,142.6a12.78,12.78,0,0,1-3.5,6.86,11.71,11.71,0,0,1-6.82,3.46l-14,1.81a9.26,9.26,0,0,1-1.28.08,8,8,0,0,1-6-2.5l-.1-.11a39.66,39.66,0,0,1-5.48,3,44.43,44.43,0,0,1-12.61,3.57,39.67,39.67,0,0,1-5.22.35,26.09,26.09,0,0,1-13-3.09q-.78-.44-1.5-.93a12.39,12.39,0,0,1-7.78,6.47l-.49.12c-2.62.54-5.1,1-7.44,1.27a45.09,45.09,0,0,1-5.78.4,21.23,21.23,0,0,1-9.14-1.74,12.16,12.16,0,0,1-2.78-1.84,12.23,12.23,0,0,1-2.06,2.78,11.62,11.62,0,0,1-6.73,3.44l-13.82,1.78a10.63,10.63,0,0,1-1.25.08,8.17,8.17,0,0,1-4.91-1.56,11.55,11.55,0,0,1-6.37,3.09L193.49,171A36.19,36.19,0,0,1,184,183.29a45.64,45.64,0,0,1-23.67,10.17,58.16,58.16,0,0,1-7.22.47c-1.13,0-2.23,0-3.32-.11l-.66-.08c-4.43-.69-7.17-4.67-6.67-9.67l.12-.82,1.26-6.85a11.14,11.14,0,0,1-4.39,1.59l-13.63,1.75a8.42,8.42,0,0,1-1.22.08,7.78,7.78,0,0,1-5.86-2.48,9.06,9.06,0,0,1-1.94-7.6L119,155.25l-10.53,1.37-2.49,16.95a12.64,12.64,0,0,1-3.38,6.63,11.38,11.38,0,0,1-6.6,3.39l-13.54,1.74a8.38,8.38,0,0,1-1.21.08,7.69,7.69,0,0,1-5.82-2.47,9,9,0,0,1-1.93-7.59L82.8,112.6a14.37,14.37,0,0,1,.41-1.75,32.43,32.43,0,0,1-4,.26,22.57,22.57,0,0,1-12.57-3.5,19.79,19.79,0,0,1-6.76-7.42,37.49,37.49,0,0,1-6.76,7.8,41.84,41.84,0,0,1-22.43,9.92,42.44,42.44,0,0,1-5.71.4c-5.95,0-10.94-1.44-14.87-4.3C4.54,110,1.74,103.53,2,95.45c0-.87.13-2,.33-3.55l0-.29.22-1.37A12.49,12.49,0,0,1,6,83.61a12,12,0,0,1,3.31-2.43A22.14,22.14,0,0,1,6.56,69a33.1,33.1,0,0,1,5.28-16.89A38.85,38.85,0,0,1,24.36,39.86,40.91,40.91,0,0,1,40.3,34.08a37.53,37.53,0,0,1,5.2-.37,28.59,28.59,0,0,1,9.07,1.4A20.31,20.31,0,0,1,65.31,43.2,22.69,22.69,0,0,1,69,55.28a40.94,40.94,0,0,1,5-4.52,37.51,37.51,0,0,1,17.57-7.39,33.58,33.58,0,0,1,4.51-.32,23.1,23.1,0,0,1,12.66,3.49,22.26,22.26,0,0,1,3.41,2.7A12.74,12.74,0,0,1,115,43.72a11.29,11.29,0,0,1,6.92-3.84L135.49,38a9.18,9.18,0,0,1,1.36-.1,8.19,8.19,0,0,1,2.06.25,21.31,21.31,0,0,1,7-2.25,18.2,18.2,0,0,1,2.6-.19,14.35,14.35,0,0,1,2.75.25c0-.41,0-.83,0-1.26a21.74,21.74,0,0,1,5.54-13.95,20.66,20.66,0,0,1,12.54-7.08l.1,0a17.8,17.8,0,0,1,2.39-.17,12.41,12.41,0,0,1,8.46,3.06c2.9,2.56,4.36,6.33,4.25,10.89a20.75,20.75,0,0,1-.45,3.85,8.92,8.92,0,0,1,1-.2l13.71-1.91a9.34,9.34,0,0,1,1.38-.1,8.53,8.53,0,0,1,2.34.32,25.43,25.43,0,0,1,8.34-2.64,24,24,0,0,1,3.23-.23,18.9,18.9,0,0,1,12.21,4.25l.21.18a12.94,12.94,0,0,1,2.39-3.42,12.27,12.27,0,0,1,4.4-2.9l1.7-10.4a12.56,12.56,0,0,1,3.43-6.77A11.66,11.66,0,0,1,245.09,4L258.3,2.1a9,9,0,0,1,1.36-.1m0-2h0A11.42,11.42,0,0,0,258,.12L244.82,2A13.73,13.73,0,0,0,237,6.05a14.64,14.64,0,0,0-4,7.84l-1.52,9.33a14.33,14.33,0,0,0-4,2.91A16,16,0,0,0,226,28a21.22,21.22,0,0,0-11.83-3.48,24.89,24.89,0,0,0-3.51.25,27.48,27.48,0,0,0-8.3,2.51,10.46,10.46,0,0,0-2.1-.21,11.55,11.55,0,0,0-1.65.12l-12.1,1.68c0-.46.07-.93.08-1.39C186.67,22.3,185,18,181.62,15a14.47,14.47,0,0,0-9.79-3.56,20.33,20.33,0,0,0-2.67.19l-.11,0a22.63,22.63,0,0,0-13.75,7.74,23.71,23.71,0,0,0-6,14.3l-.78,0a20.43,20.43,0,0,0-2.87.21,23.56,23.56,0,0,0-7,2.13,10.43,10.43,0,0,0-1.78-.15,13,13,0,0,0-1.63.11l-13.59,1.9a13.34,13.34,0,0,0-8.15,4.5,14.68,14.68,0,0,0-2.25,3.44c-.46-.35-.93-.67-1.42-1a25,25,0,0,0-13.73-3.81,34.6,34.6,0,0,0-4.79.34A39.45,39.45,0,0,0,72.8,49.17c-.78.59-1.55,1.2-2.29,1.85A23.47,23.47,0,0,0,67,42.09a22.26,22.26,0,0,0-11.77-8.87,30.54,30.54,0,0,0-9.71-1.51A39.67,39.67,0,0,0,40,32.1a43.19,43.19,0,0,0-16.72,6A41,41,0,0,0,10.15,51.06,35.16,35.16,0,0,0,4.56,69,25.06,25.06,0,0,0,6.63,80.43a14.21,14.21,0,0,0-2.1,1.79,14.54,14.54,0,0,0-3.88,7.7L.42,91.28l0,.34C.16,93.27.05,94.45,0,95.38c-.3,8.78,2.79,15.78,8.92,20.24,4.27,3.12,9.67,4.69,16,4.69a44.82,44.82,0,0,0,6-.42,43.73,43.73,0,0,0,23.47-10.4,39.32,39.32,0,0,0,5.35-5.69,21.55,21.55,0,0,0,5.77,5.49,24.66,24.66,0,0,0,13.66,3.82c.49,0,1,0,1.49,0l-9.23,62a11,11,0,0,0,2.43,9.22,9.62,9.62,0,0,0,7.3,3.13,12,12,0,0,0,1.46-.09l13.54-1.75a13.36,13.36,0,0,0,7.78-4,14.6,14.6,0,0,0,3.92-7.7l2.28-15.49,6.4-.84-1.77,11.88a11,11,0,0,0,2.45,9.24,9.7,9.7,0,0,0,7.33,3.13,12.25,12.25,0,0,0,1.48-.09L139.71,180a11.19,11.19,0,0,0,1.49-.29l-.59,3.2V183l-.12.82v.09c-.6,6,2.91,11,8.35,11.85h.08l.66.08h.1c1.12.07,2.28.11,3.45.11a58.16,58.16,0,0,0,7.47-.49,47.54,47.54,0,0,0,24.7-10.61,38.13,38.13,0,0,0,9.52-12l11.76-1.52a13.3,13.3,0,0,0,6.29-2.61,10.39,10.39,0,0,0,4.73,1.1,11,11,0,0,0,1.51-.1L232.9,168a13.59,13.59,0,0,0,7.91-4,14.26,14.26,0,0,0,1.14-1.31c.46.28.93.54,1.41.77a22.87,22.87,0,0,0,10,1.94,47.49,47.49,0,0,0,6-.42c2.38-.3,4.93-.74,7.59-1.29h.07l.49-.12h.05a14.25,14.25,0,0,0,7.93-5.64,28.14,28.14,0,0,0,13.81,3.26,43.4,43.4,0,0,0,5.47-.36A46.94,46.94,0,0,0,308,157a42.13,42.13,0,0,0,4.42-2.31,10.22,10.22,0,0,0,6.36,2.1,13.08,13.08,0,0,0,1.53-.09l14-1.81a13.76,13.76,0,0,0,8-4,14.78,14.78,0,0,0,4-7.93l3.06-20.78,1.09-.39a12.51,12.51,0,0,0,6.11-1.73,14.51,14.51,0,0,0,6.29-7.63l0-.07,0-.08,4.5-15.69a14.2,14.2,0,0,0,.6-3.74A10.39,10.39,0,0,0,363,83.26a15.28,15.28,0,0,0-7.69-1.9,22.21,22.21,0,0,0-2.88.19,24.56,24.56,0,0,0-7.24,2.15,10.83,10.83,0,0,0-1.9-.16,13,13,0,0,0-1.63.11l-14,1.88a13.65,13.65,0,0,0-8.37,4.54A14.48,14.48,0,0,0,317.79,92c-.53-.34-1.08-.66-1.64-1a25.05,25.05,0,0,0-11.83-2.83,31.74,31.74,0,0,0-4.19.29,38.38,38.38,0,0,0-17,6.68,9.53,9.53,0,0,0-3.93-2.23l1-6a11,11,0,0,0-2.51-9.39,9.92,9.92,0,0,0-7.39-3.09,12.08,12.08,0,0,0-1.58.1l-1,.14,1.4-9.9a11,11,0,0,0-2.54-9.25,9.66,9.66,0,0,0-3-2.19,13.86,13.86,0,0,0,6.3-3.74,14.81,14.81,0,0,0,4-7.83l1.63-11.55A11,11,0,0,0,272.9,21a9.58,9.58,0,0,0-4.38-2.68l1-5.92A11,11,0,0,0,267,3.05a9.84,9.84,0,0,0-7.31-3Z"/><path class="cls-2" d="M15.45,106.63q-5.56-4-5.28-12.29c0-.55.1-1.45.26-2.69l.22-1.3a2,2,0,0,1,.52-1.08,1.55,1.55,0,0,1,.92-.49L25.29,87a1,1,0,0,1,.91.24,1.15,1.15,0,0,1,.18,1l-.11.56A4.36,4.36,0,0,0,28.09,93c1.44,1.12,3.57,1.48,6.37,1.1a7.47,7.47,0,0,0,5-2.32A6.07,6.07,0,0,0,41,88.21a2.45,2.45,0,0,0-1.53-2.54,28.88,28.88,0,0,0-5.58-1.43l-2.34-.5a32.27,32.27,0,0,1-12.24-4.85q-4.89-3.39-4.63-11a23.05,23.05,0,0,1,3.66-11.81,28.31,28.31,0,0,1,9.17-8.94A31.91,31.91,0,0,1,40,42.65a23.63,23.63,0,0,1,10.92.76,13.83,13.83,0,0,1,7.38,5.51,15.67,15.67,0,0,1,2.4,9.41c0,.55-.11,1.44-.26,2.69l-.12.84a2,2,0,0,1-.51,1.07,1.67,1.67,0,0,1-1,.51L45.63,65.26a1,1,0,0,1-.91-.24,1.15,1.15,0,0,1-.18-1V64a5.16,5.16,0,0,0-.45-3.32,5.38,5.38,0,0,0-2.54-2.39,7.53,7.53,0,0,0-4.39-.48,8.7,8.7,0,0,0-4.69,2A5.22,5.22,0,0,0,30.6,63.6a3.36,3.36,0,0,0,2.2,3.21,45.52,45.52,0,0,0,8.68,2.5q.69.18,5.33,1.14a13.78,13.78,0,0,1,7.68,4.34,12,12,0,0,1,2.86,8.81c0,.49-.1,1.29-.26,2.41a25.28,25.28,0,0,1-8.56,15.68A32.58,32.58,0,0,1,31,109.33Q21,110.67,15.45,106.63Z"/><path class="cls-3" d="M71.75,100q-4.84-3.14-6.21-9.74A24,24,0,0,1,65.05,84a35.92,35.92,0,0,1,.31-4.16A34.25,34.25,0,0,1,68.7,69,30.48,30.48,0,0,1,78,57.53,28.16,28.16,0,0,1,91.29,52c4.88-.68,9,.05,12.33,2.19a13.33,13.33,0,0,1,6.15,8.93,19.62,19.62,0,0,1,.24,3.46,1.9,1.9,0,0,1-1.38,1.66L95,72.39l-.27,0c-.76.11-1.13-.24-1.11-1l0-1.28a3.74,3.74,0,0,0-1.55-2.4,4.19,4.19,0,0,0-3.1-.63,7,7,0,0,0-5.32,4,21.12,21.12,0,0,0-2.06,6.61c-.16,1.24-.25,2.14-.26,2.69A13.27,13.27,0,0,0,81.63,84q.84,3.55,4.38,3.07,3.7-.49,5.79-5l.1-.38a2.19,2.19,0,0,1,.65-1.15,1.44,1.44,0,0,1,1-.36l13.11.6c.76.08,1,.53.83,1.36a16.82,16.82,0,0,1-1,3,29.19,29.19,0,0,1-22.66,17Q76.61,103.17,71.75,100Z"/><path class="cls-4" d="M150.06,45.11a1,1,0,0,1,.5,1,2.48,2.48,0,0,1-.11.75l-4.19,14.77a2,2,0,0,1-.7,1,1.47,1.47,0,0,1-1,.14,10.12,10.12,0,0,0-2.75,0,11.52,11.52,0,0,0-2.41.61,10.86,10.86,0,0,0-4.16,2.55A7.29,7.29,0,0,0,133,70.3l-3.5,23.6A1.9,1.9,0,0,1,129,95a1.75,1.75,0,0,1-1,.51l-13.58,1.83a1,1,0,0,1-.92-.24,1.12,1.12,0,0,1-.19-1l6.87-46a2.14,2.14,0,0,1,.47-1.08,1.53,1.53,0,0,1,1-.5l13.59-1.89a1,1,0,0,1,.92.24,1.15,1.15,0,0,1,.19,1L136,49.92c0,.55.15.62.52.2a14,14,0,0,1,9.13-5.59A6.79,6.79,0,0,1,150.06,45.11Z"/><path class="cls-5" d="M151,92a1.15,1.15,0,0,1-.19-1l6.88-46.14a2.07,2.07,0,0,1,.48-1.08,1.51,1.51,0,0,1,1-.5l13.67-1.9a1,1,0,0,1,.92.24,1.15,1.15,0,0,1,.2,1l-6.8,46.18a2,2,0,0,1-.52,1.09,1.8,1.8,0,0,1-1,.51L152,92.25A1,1,0,0,1,151,92Zm10.44-53.38a6.48,6.48,0,0,1-1.87-5.16,11.37,11.37,0,0,1,2.9-7.43,10.78,10.78,0,0,1,6.63-3.74,6.11,6.11,0,0,1,5.18,1.27,6.21,6.21,0,0,1,1.88,5.07,11.77,11.77,0,0,1-2.91,7.49A10.49,10.49,0,0,1,166.63,40,5.9,5.9,0,0,1,161.46,38.63Z"/><path class="cls-6" d="M225.76,53.15a52.41,52.41,0,0,1-.43,5.26,46.43,46.43,0,0,1-3.7,12.37,31.54,31.54,0,0,1-8,10.31,21.53,21.53,0,0,1-11.22,5.08c-4.19.57-7.09-.4-8.67-2.9-.12-.23-.23-.31-.36-.23a.87.87,0,0,0-.28.5l-2.73,18.79a2,2,0,0,1-.52,1.09,1.69,1.69,0,0,1-1.05.51l-13.71,1.84a1,1,0,0,1-.93-.25,1.15,1.15,0,0,1-.19-1l9.38-63.2a2.07,2.07,0,0,1,.48-1.08,1.56,1.56,0,0,1,1-.51l13.71-1.9a1,1,0,0,1,.93.24,1.14,1.14,0,0,1,.2,1l-.44,2.65c0,.24,0,.39.16.44s.27-.07.46-.34a15.49,15.49,0,0,1,10.75-6.4A12.27,12.27,0,0,1,220.49,38q4.11,3.38,5.07,10A31.63,31.63,0,0,1,225.76,53.15Zm-17.61,7.33a25.26,25.26,0,0,0,.25-2.54,11.27,11.27,0,0,0-.58-4.17,3.49,3.49,0,0,0-4.13-2.49c-2,.27-3.69,1.56-5.13,3.85a19.08,19.08,0,0,0-2.27,7c-.16,1.26-.25,2.17-.26,2.72a11.76,11.76,0,0,0,.58,4.37,3.47,3.47,0,0,0,4.13,2.3,6.77,6.77,0,0,0,5-3.74A22.07,22.07,0,0,0,208.15,60.48Z"/><path class="cls-7" d="M263,42.47a1.76,1.76,0,0,1-1.05.52l-7.16,1a.84.84,0,0,0-.65.65l-2.16,14.79a7.88,7.88,0,0,0-.13,1.32q-.09,3.36,2.62,3l3.26-.45a.93.93,0,0,1,.85.26,1.13,1.13,0,0,1,.19,1L257,76.66a1.93,1.93,0,0,1-1.49,1.69c-2.36.51-4.6.9-6.71,1.19q-7.25,1-10.7-.65c-2.3-1.08-3.4-3.51-3.28-7.3,0-.5.1-1.38.26-2.64l3.28-22.16c0-.38-.13-.54-.43-.5l-4.7.64a1,1,0,0,1-.93-.24,1.12,1.12,0,0,1-.2-1l1.7-11.36a1.94,1.94,0,0,1,.53-1.09,1.7,1.7,0,0,1,1-.52l4.61-.64a.59.59,0,0,0,.56-.63l2.8-17.21a2,2,0,0,1,.53-1.09,1.68,1.68,0,0,1,1-.51L258,10.81A1,1,0,0,1,259,11a1.14,1.14,0,0,1,.2,1l-2.81,17.22c0,.37.13.54.43.5l7.25-1a.92.92,0,0,1,.85.26,1.15,1.15,0,0,1,.2,1l-1.61,11.38A1.94,1.94,0,0,1,263,42.47Z"/><path class="cls-8" d="M129.35,120.54a1.51,1.51,0,0,1-1,.5l-22.8,3c-.3,0-.51.25-.64.63l-1.25,8.64c-.07.38.07.54.43.5l17.72-2.35a.88.88,0,0,1,.83.26,1.12,1.12,0,0,1,.19,1L121,145a2.24,2.24,0,0,1-.48,1.08,1.53,1.53,0,0,1-1,.5l-17.72,2.33a.57.57,0,0,0-.55.62l-3.51,23.86a2,2,0,0,1-.52,1.08,1.71,1.71,0,0,1-1,.5L82.7,176.7a1,1,0,0,1-.92-.25,1.12,1.12,0,0,1-.18-1L91,112.6a2.08,2.08,0,0,1,.48-1.07,1.48,1.48,0,0,1,1-.5l38.21-5.13a.88.88,0,0,1,.83.25,1.15,1.15,0,0,1,.19,1l-1.81,12.32A2.24,2.24,0,0,1,129.35,120.54Z"/><path class="cls-9" d="M125.18,170.83a1.15,1.15,0,0,1-.19-1l6.88-46.13a2.07,2.07,0,0,1,.48-1.08,1.53,1.53,0,0,1,1-.5L147,120.32a1,1,0,0,1,.92.24,1.12,1.12,0,0,1,.19,1l-6.79,46.18a2,2,0,0,1-.53,1.08,1.68,1.68,0,0,1-1,.5l-13.63,1.77A1,1,0,0,1,125.18,170.83Zm10.39-53.39a6.56,6.56,0,0,1-1.83-5.2,11.33,11.33,0,0,1,2.94-7.4,10.57,10.57,0,0,1,6.64-3.66,6.06,6.06,0,0,1,5.15,1.34,6.29,6.29,0,0,1,1.83,5.11,11.77,11.77,0,0,1-2.94,7.45,10.42,10.42,0,0,1-6.65,3.8A5.92,5.92,0,0,1,135.57,117.44Z"/><path class="cls-10" d="M179.74,116.33a1.75,1.75,0,0,1,1-.51L194.51,114a1,1,0,0,1,.93.25,1.15,1.15,0,0,1,.19,1l-6.11,41.33q-2,13.53-10.06,20.18a36.17,36.17,0,0,1-18.86,8,46.82,46.82,0,0,1-9,.32q-1-.17-.84-1.47l2.36-12.8c.21-1.08.79-1.52,1.73-1.33a22.72,22.72,0,0,0,6.67.15,15.25,15.25,0,0,0,7.09-2.67,10.81,10.81,0,0,0,4.06-6v-.18a.32.32,0,0,0-.21-.35c-.15,0-.32,0-.5.25a15.3,15.3,0,0,1-8.68,3.91q-13.86,1.78-15.88-10a28,28,0,0,1-.36-5.5,46.87,46.87,0,0,1,.52-5.33,41.71,41.71,0,0,1,3.5-12.11A29.41,29.41,0,0,1,159,121.4a21.28,21.28,0,0,1,10.79-4.86q6-.8,8.56,2.66c.18.16.32.2.45.12s.18-.24.19-.49l.22-1.41A2,2,0,0,1,179.74,116.33ZM175.92,140c.16-1.38.25-2.31.27-2.81a9.59,9.59,0,0,0-.35-3.2,3.71,3.71,0,0,0-4.46-2.74q-3,.39-5,3.9a16.47,16.47,0,0,0-2.35,6.69c-.15,1.13-.24,2-.25,2.44a10.75,10.75,0,0,0,.42,3.56c.71,2.07,2.22,3,4.55,2.64a7.14,7.14,0,0,0,5.38-3.85A23.6,23.6,0,0,0,175.92,140Z"/><path class="cls-11" d="M235.84,111.61q3.67,3.38,3.47,10.19c0,.56-.11,1.53-.27,2.92l-4.54,30.93a2,2,0,0,1-.53,1.09,1.69,1.69,0,0,1-1.06.51L219.1,159a1,1,0,0,1-.94-.25,1.13,1.13,0,0,1-.19-1l4-27a5.48,5.48,0,0,0,.13-1.13,5,5,0,0,0-1-3.58,3.19,3.19,0,0,0-3.06-1,5.84,5.84,0,0,0-3.84,2.22,9.66,9.66,0,0,0-2,4.77l-4,27a2,2,0,0,1-.52,1.1,1.73,1.73,0,0,1-1.05.5l-13.76,1.78a1,1,0,0,1-.93-.25,1.12,1.12,0,0,1-.2-1l9.4-63.38a2.07,2.07,0,0,1,.48-1.08,1.59,1.59,0,0,1,1-.51l13.77-1.84a1,1,0,0,1,.93.24,1.13,1.13,0,0,1,.19,1l-2.95,20.25c-.07.32-.05.5.07.55s.24-.06.37-.33A15.65,15.65,0,0,1,226.11,109Q232.15,108.25,235.84,111.61Z"/><path class="cls-12" d="M273.59,117.09a1.8,1.8,0,0,1-1,.51l-7.18.94c-.3,0-.52.26-.65.65L262.55,134a6.94,6.94,0,0,0-.13,1.32q-.1,3.38,2.62,3l3.27-.42a.93.93,0,0,1,.85.26,1.17,1.17,0,0,1,.2,1l-1.73,12.17a1.94,1.94,0,0,1-1.49,1.69c-2.37.49-4.62.87-6.73,1.15q-7.26.93-10.73-.71t-3.3-7.35c0-.5.1-1.38.26-2.65l3.29-22.22c0-.37-.13-.54-.43-.5l-4.71.62a1,1,0,0,1-.94-.25,1.12,1.12,0,0,1-.19-1l1.69-11.39a2,2,0,0,1,.53-1.1,1.8,1.8,0,0,1,1.05-.51l4.62-.61a.59.59,0,0,0,.56-.64l2.81-17.24a2,2,0,0,1,.53-1.1,1.67,1.67,0,0,1,1-.5l13.24-1.78a1.06,1.06,0,0,1,1,.25,1.13,1.13,0,0,1,.19,1L267,103.79c0,.38.13.54.44.5l7.26-1a.94.94,0,0,1,.86.26,1.15,1.15,0,0,1,.19,1L274.12,116A2,2,0,0,1,273.59,117.09Z"/><path class="cls-13" d="M318.58,124.9a1.61,1.61,0,0,1-1.5,1.51l-26.39,3.46c-.37,0-.55.23-.56.54a3.18,3.18,0,0,0,.4,1.81,4.68,4.68,0,0,0,2.74,2.31,9.81,9.81,0,0,0,4.9.43,14.12,14.12,0,0,0,4.54-1.38,15.21,15.21,0,0,0,3.76-2.6,1.84,1.84,0,0,1,1-.51.91.91,0,0,1,.9.45l5.31,8.39a1.23,1.23,0,0,1,.25.81,1.72,1.72,0,0,1-.59,1.19,28.3,28.3,0,0,1-8.5,5.84,35.93,35.93,0,0,1-10,2.84q-8.31,1.06-13.57-1.89a14.21,14.21,0,0,1-6.88-9.47,21.88,21.88,0,0,1-.7-6.72,27.26,27.26,0,0,1,.29-3.68,40,40,0,0,1,3.13-10.86A33.52,33.52,0,0,1,286.62,105a27.17,27.17,0,0,1,13.51-5.81,16.71,16.71,0,0,1,10.28,1.58,15.7,15.7,0,0,1,6.8,7.14,23.27,23.27,0,0,1,2.18,11.18A33.78,33.78,0,0,1,318.58,124.9ZM292.19,119l-.48,1c-.14.45,0,.65.43.59l9.95-1.3a.5.5,0,0,0,.47-.53l-.06-1.12A3.39,3.39,0,0,0,301,115.1a4.66,4.66,0,0,0-3.26-.55Q294.21,115,292.19,119Z"/><path class="cls-14" d="M357,92.94a1,1,0,0,1,.53,1,2.52,2.52,0,0,1-.12.76l-4.28,15a2,2,0,0,1-.72,1,1.55,1.55,0,0,1-1.05.14,11.24,11.24,0,0,0-2.84,0,12.19,12.19,0,0,0-2.49.61,11.05,11.05,0,0,0-4.28,2.58,7.28,7.28,0,0,0-2.24,4.46l-3.53,24a1.94,1.94,0,0,1-.53,1.1,1.78,1.78,0,0,1-1.07.52l-14,1.81a1,1,0,0,1-.95-.25,1.15,1.15,0,0,1-.19-1l6.93-46.79a2.1,2.1,0,0,1,.48-1.09,1.57,1.57,0,0,1,1-.51l14-1.87a1,1,0,0,1,.95.25,1.11,1.11,0,0,1,.2,1l-.33,2.11q0,.84.54.21a14.37,14.37,0,0,1,9.41-5.66A7.15,7.15,0,0,1,357,92.94Z"/></g></g></svg>