<svg width="358" height="104" viewBox="0 0 358 104" fill="none" xmlns="http://www.w3.org/2000/svg">
<path d="M0 104V0H11.8409V104H0Z" fill="white"/>
<path d="M72.4705 104V11.7H26.2619V0H130.231V11.7H84.167V104H72.4705Z" fill="white"/>
<path d="M158.359 104C153.546 104 149.454 102.315 146.085 98.9444C142.715 95.5741 141.031 91.4815 141.031 86.6667V17.3333C141.031 12.5185 142.715 8.42592 146.085 5.05555C149.454 1.68518 153.546 0 158.359 0H227.672C232.485 0 236.577 1.68518 239.946 5.05555C243.315 8.42592 245 12.5185 245 17.3333V21.5222H233.303V17.3333C233.303 15.7926 232.726 14.4926 231.571 13.4333C230.512 12.2778 229.212 11.7 227.672 11.7H158.359C156.819 11.7 155.471 12.2778 154.316 13.4333C153.257 14.4926 152.727 15.7926 152.727 17.3333V86.6667C152.727 88.2074 153.257 89.5556 154.316 90.7111C155.471 91.7704 156.819 92.3 158.359 92.3H227.672C229.212 92.3 230.512 91.7704 231.571 90.7111C232.726 89.5556 233.303 88.2074 233.303 86.6667V60.9556H207.6V49.1111H245V86.6667C245 91.4815 243.315 95.5741 239.946 98.9444C236.577 102.315 232.485 104 227.672 104H158.359Z" fill="white"/>
<path fill-rule="evenodd" clip-rule="evenodd" d="M352.198 33.0252L357.963 0.702393L327.069 11.8749L334.659 18.2633L300.811 61.5506L303.123 104H314.971V65.0159L343.744 25.9097L352.198 33.0252Z" fill="#FFA000"/>
<path fill-rule="evenodd" clip-rule="evenodd" d="M294.766 15.3777L265.738 0L266.926 32.8107L275.523 27.4273L297.055 56.497L305.29 46.2456L285.652 21.0847L294.766 15.3777Z" fill="white"/>
</svg>
